PathFileType  4	(X/Y/Z) C:\Users\antoi\Documents\MyRepositories\mobilecap\ResultsAnalysis
DataRate	CameraRate	NumFrames	NumMarkers	Units	OrigDataRate	OrigDataStartFrame	OrigNumFrames
100.0	100.0	6	51	mm	100.0	811	2161
Frame#	Time	r_knee			r_shank_antsup			r_ankle			r_calc			r_5meta			r_toe			L_knee			L_shank_antsup			L_ankle			L_calc			L_5meta			L_toe			r_sh2			r_sh3			r_sh4			L_sh2			L_sh3			r_thigh1			r_thigh2			r_thigh3			r_thigh4			r_thigh5			L_thigh1			L_thigh2			L_thigh3			L_thigh4			r.ASIS			r.PSIS			L.ASIS			L.PSIS			C7			R_Shoulder			L_Shoulder			R_Sternum			L_Sternum			R_humerus			R_elbow_med			R_elbow_lat			R_forearm			R_wrist_radius			R_wrist_ulna			L_humerus			L_elbow_med			L_elbow_lat			L_forearm			L_wrist_radius			L_wrist_ulna			R_HJC			L_HJC			R_HJC_reg			L_HJC_reg			
		X1	Y1	Z1	X2	Y2	Z2	X3	Y3	Z3	X4	Y4	Z4	X5	Y5	Z5	X6	Y6	Z6	X7	Y7	Z7	X8	Y8	Z8	X9	Y9	Z9	X10	Y10	Z10	X11	Y11	Z11	X12	Y12	Z12	X13	Y13	Z13	X14	Y14	Z14	X15	Y15	Z15	X16	Y16	Z16	X17	Y17	Z17	X18	Y18	Z18	X19	Y19	Z19	X20	Y20	Z20	X21	Y21	Z21	X22	Y22	Z22	X23	Y23	Z23	X24	Y24	Z24	X25	Y25	Z25	X26	Y26	Z26	X27	Y27	Z27	X28	Y28	Z28	X29	Y29	Z29	X30	Y30	Z30	X31	Y31	Z31	X32	Y32	Z32	X33	Y33	Z33	X34	Y34	Z34	X35	Y35	Z35	X36	Y36	Z36	X37	Y37	Z37	X38	Y38	Z38	X39	Y39	Z39	X40	Y40	Z40	X41	Y41	Z41	X42	Y42	Z42	X43	Y43	Z43	X44	Y44	Z44	X45	Y45	Z45	X46	Y46	Z46	X47	Y47	Z47	X48	Y48	Z48	X49	Y49	Z49	X50	Y50	Z50	X51	Y51	Z51	

811	8.10000000	-184.96390	476.45730	-415.82076	-125.06728	435.35816	-420.59066	-260.28654	98.56403	-430.00148	-320.61102	57.03979	-479.93435	-141.87795	45.95925	-394.59144	-100.39190	74.67173	-444.25465	-187.35932	471.90003	-804.50472	-145.21663	399.13477	-812.06472	-251.41320	97.30272	-772.66381	-310.74508	56.93671	-721.67415	-135.18873	43.94308	-807.44630	-89.04922	66.09333	-758.19868	-145.99335	321.79472	-435.22076	-195.27673	442.28688	-388.62483	-213.51775	327.52492	-384.00572	-251.23356	299.49716	-814.83601	-231.30802	420.75873	-819.96690	-456.65980	576.16641	-507.16115	-347.62322	584.08410	-486.42733	-333.94768	568.08236	-422.92518	-471.31821	527.88740	-410.32696	-357.95397	524.74228	-394.60414	-493.42718	545.72508	-788.83573	-354.22556	525.48835	-814.89224	-510.78000	433.10229	-798.90338	-374.10743	413.26994	-788.26039	-548.14598	605.21694	-483.61201	-728.06504	536.12574	-562.70715	-534.61071	593.09497	-716.93900	-724.38200	535.12954	-659.42343	-649.83259	1029.34002	-642.02147	-577.74617	998.28493	-473.84732	-569.13347	978.74367	-785.50384	-546.11123	926.78111	-610.65512	-545.03934	923.19692	-644.71150	-601.98869	788.29708	-354.56417	-664.08393	680.23420	-371.42423	-620.73224	703.12956	-318.03610	-505.61624	744.00819	-385.18281	-449.58278	792.96540	-453.28703	-425.74701	756.60197	-439.61302	-553.69951	761.66540	-880.33733	-583.83644	634.87870	-841.64938	-548.90217	653.72845	-905.61028	-441.49279	724.61658	-830.65223	-395.14762	795.83450	-768.94104	-371.68740	758.31209	-758.47586	-570.46950	496.21244	-514.58228	-575.88831	490.24870	-705.08340	-569.49417	504.13640	-515.76653	-563.61715	502.54608	-670.11151	
812	8.11000000	-185.04788	476.47886	-415.80899	-125.10183	435.37514	-420.58515	-260.27094	98.56087	-430.12141	-320.58180	56.65225	-479.53501	-141.80960	46.35645	-394.15989	-100.38677	74.65836	-444.26723	-187.64261	472.01817	-805.07556	-145.42734	399.11198	-812.34372	-251.48336	97.27836	-772.66371	-310.77339	56.93222	-721.69745	-135.25328	43.92889	-807.39976	-89.07654	66.18255	-758.23500	-146.02412	321.78779	-435.22398	-195.28922	442.21345	-388.61209	-213.43523	327.55723	-384.02022	-252.47520	298.42072	-813.34605	-231.59202	420.84242	-820.41140	-456.82020	576.25850	-506.99183	-347.97758	584.24252	-485.94393	-334.07236	568.08311	-422.61865	-471.50001	527.65019	-410.48110	-358.08687	524.61446	-394.50430	-493.84850	545.41123	-788.78640	-354.62783	525.33834	-814.99597	-510.65860	433.48384	-799.71883	-374.37186	413.07842	-788.18510	-549.52676	605.49536	-483.69100	-728.41056	534.38151	-562.33015	-536.10869	593.36675	-717.13164	-725.20288	533.40787	-659.08177	-657.63353	1028.44754	-641.94036	-584.55290	997.43711	-473.43909	-576.68655	978.70228	-786.14557	-553.11435	926.99867	-610.84260	-551.87637	923.53214	-645.18378	-607.21745	786.56048	-355.67475	-668.65950	678.38655	-372.92993	-625.44729	701.10054	-319.48810	-510.10436	742.42267	-386.39665	-454.13570	791.98377	-453.81950	-430.29420	755.38504	-440.70744	-560.69512	761.57656	-880.91057	-590.37554	634.66595	-842.21526	-555.67524	653.76511	-906.58798	-448.09524	724.57982	-831.77969	-401.62164	795.61102	-769.87901	-378.13417	758.09337	-759.66953	-570.50244	496.26167	-514.55032	-576.24123	490.09973	-705.03557	-569.27045	504.08057	-515.72282	-564.15282	502.52608	-670.15864	
813	8.12000000	-185.10428	476.53860	-415.72255	-125.19007	435.40417	-420.51372	-260.08228	98.76546	-429.95401	-320.51775	56.35582	-478.58298	-141.69151	46.97922	-393.44797	-100.39371	74.67873	-444.26637	-188.03449	472.04709	-805.48454	-145.76887	399.12754	-812.74915	-251.57818	97.26706	-772.64378	-310.81335	56.90245	-721.72382	-135.31603	44.01602	-807.48292	-89.12701	66.30251	-758.25167	-146.09007	321.77207	-435.14541	-195.27052	442.17654	-388.47198	-213.32668	327.61006	-383.83451	-254.55081	296.68553	-811.12289	-231.94939	420.99695	-820.94007	-457.04873	576.45344	-506.76540	-348.24864	584.26547	-485.68546	-334.26433	568.14005	-422.32133	-471.93961	527.83410	-410.25806	-358.30146	524.48717	-394.40121	-494.35916	545.26753	-788.72563	-355.19720	525.29814	-815.17609	-510.81135	433.71406	-800.10405	-374.69824	413.00281	-788.20655	-550.95018	605.86424	-483.68334	-728.23554	532.96282	-561.90033	-537.28984	593.61322	-717.38751	-726.22120	531.96989	-658.73606	-665.25976	1027.58292	-641.76508	-591.14868	996.70855	-473.02944	-584.14432	978.74168	-786.72154	-559.44593	927.27675	-611.30518	-558.39608	923.85635	-645.60498	-612.18711	784.89707	-356.77766	-672.98540	676.58113	-374.30757	-629.83563	699.16750	-320.88772	-514.37486	740.91526	-387.58660	-458.40698	791.06305	-454.44868	-434.69805	754.16787	-441.79137	-567.60383	761.36976	-881.32639	-596.90286	634.34060	-842.87793	-562.39393	653.75391	-907.28786	-454.59308	724.47121	-832.82058	-407.84222	795.41465	-770.80281	-384.37573	757.86828	-760.78580	-570.49732	496.44747	-514.46145	-576.53029	490.01396	-704.92867	-568.16623	504.04559	-515.37976	-564.95016	502.45986	-670.05216	
814	8.13000000	-185.20329	476.57259	-415.68215	-125.41753	435.44472	-420.39211	-260.05697	98.81864	-429.83790	-320.51557	56.37205	-478.20731	-141.71866	47.20969	-393.25274	-100.42891	74.75939	-444.24743	-188.58115	472.13929	-805.86955	-146.22864	399.13205	-813.12242	-251.70937	97.26903	-772.62735	-310.87677	56.85256	-721.74831	-135.41030	44.19903	-807.57187	-89.22115	66.51365	-758.30129	-146.21924	321.79088	-434.97673	-195.39440	442.20528	-388.26619	-213.36069	327.64161	-383.66755	-255.86075	295.72121	-810.26910	-232.37161	421.11587	-821.33867	-457.35279	576.76847	-506.52256	-348.49252	584.36885	-485.39641	-334.60089	568.18845	-422.09151	-472.51876	528.27716	-409.77590	-358.60788	524.36988	-394.31191	-494.94571	545.24735	-788.60904	-355.92731	525.33902	-815.41812	-511.30882	433.65579	-799.78919	-375.10069	413.02826	-788.32544	-552.41423	606.23190	-483.75450	-728.50068	531.79776	-561.80301	-538.66956	593.88244	-717.57783	-727.17277	530.57165	-658.59503	-672.71181	1026.74149	-641.53507	-597.62050	996.06390	-472.71977	-591.40512	978.76037	-787.24292	-565.46179	927.68561	-611.83521	-564.75123	924.17620	-645.82149	-616.93114	783.37476	-357.73590	-677.12231	674.93414	-375.52252	-633.97532	697.37719	-322.24192	-518.46921	739.56762	-388.57380	-462.42687	790.15420	-455.19229	-438.94252	752.97056	-442.97396	-574.50020	761.14262	-881.61694	-603.42780	634.15180	-843.71302	-569.06483	653.58267	-907.52586	-460.96568	724.28184	-833.65605	-413.61492	795.53343	-772.14916	-390.45825	757.60399	-761.71777	-570.78647	496.66472	-514.45776	-576.95656	489.96501	-704.91162	-567.98767	504.33911	-515.03750	-565.86291	502.37819	-669.81745	
815	8.14000000	-185.47617	476.56155	-415.72602	-125.76571	435.52280	-420.29936	-260.88938	97.94392	-430.88786	-320.74165	55.29077	-479.60216	-141.90796	46.99822	-393.61921	-100.49097	74.87809	-444.21262	-189.22695	472.25383	-806.09611	-146.70666	399.16444	-813.32763	-251.86944	97.26277	-772.59335	-310.96841	56.79801	-721.77435	-135.52357	44.46608	-807.58292	-89.35700	66.88446	-758.49904	-146.42930	321.96532	-434.87900	-195.69258	442.23085	-388.07080	-213.38134	327.33370	-383.86642	-255.97781	295.79020	-810.77374	-232.81102	421.14978	-821.50461	-457.70059	577.10157	-506.30477	-348.80846	584.50633	-485.14664	-335.05133	568.25530	-421.93280	-472.94129	528.50016	-409.53440	-358.98287	524.31471	-394.21257	-495.54495	545.24087	-788.35955	-356.65488	525.40277	-815.55768	-511.90060	433.64119	-799.35813	-375.58120	413.06109	-788.39937	-553.89022	606.53982	-483.92712	-729.41479	530.73251	-561.95225	-540.43665	594.16257	-717.59406	-728.16134	529.28354	-658.43987	-679.97887	1025.90898	-641.33841	-603.99740	995.60599	-472.42198	-598.48277	978.77741	-787.74303	-571.59697	928.18666	-612.07824	-571.06128	924.52292	-645.88390	-621.53295	781.98430	-358.53180	-681.00361	673.33928	-376.78169	-637.91691	695.74023	-323.47456	-522.31698	738.29014	-389.57989	-466.24199	789.26482	-455.88271	-442.93663	751.77871	-444.45610	-581.38265	760.96291	-881.88119	-609.69304	634.04204	-844.03853	-575.61040	653.32925	-907.57754	-467.21532	724.05245	-834.18016	-419.06664	795.81021	-773.60444	-396.41493	757.30270	-762.54596	-571.42694	496.82867	-514.51671	-577.70938	489.95129	-704.96040	-568.86702	504.74733	-514.94164	-566.85705	502.42392	-669.60395	
816	8.15000000	-185.89535	476.66682	-415.60975	-126.15778	435.66117	-420.28522	-262.32364	96.43904	-432.85320	-321.13716	52.83963	-481.78549	-142.10232	46.92391	-393.81539	-100.55829	75.00117	-444.17346	-189.89165	472.41594	-806.23132	-147.15923	399.27148	-813.37333	-252.04949	97.26328	-772.56461	-311.07301	56.73935	-721.79798	-135.59242	44.95534	-807.84183	-89.49855	67.31705	-758.75209	-146.77733	322.36155	-434.92090	-196.08031	442.14579	-388.00617	-213.42454	327.00320	-384.09143	-255.88586	295.99620	-811.06854	-233.23968	421.14250	-821.52881	-458.08335	577.28114	-506.22324	-349.15531	584.64765	-485.00570	-335.47960	568.37392	-421.81036	-473.04565	528.21657	-409.75006	-359.36489	524.42544	-394.01263	-496.16394	545.27228	-788.08796	-357.26209	525.47810	-815.57154	-512.41766	433.84529	-799.29701	-376.13051	413.06556	-788.37652	-555.31778	606.77382	-484.08349	-730.35883	529.62975	-561.80901	-542.31511	594.43604	-717.49915	-729.21427	528.18188	-658.11045	-687.05684	1025.11260	-641.17147	-610.24276	995.34454	-472.08061	-605.44593	978.82733	-788.21782	-577.68123	928.65918	-612.18401	-577.18380	924.92011	-646.06096	-626.00697	780.66709	-359.30333	-684.52621	671.61762	-378.24923	-641.59590	694.18881	-324.57233	-525.93119	737.02056	-390.73263	-469.90617	788.47340	-456.53702	-446.72046	750.71973	-446.02591	-588.21478	760.80728	-882.13881	-615.72408	633.71804	-843.92498	-581.96886	653.18594	-907.90413	-473.31899	723.81073	-834.55947	-424.59670	795.83099	-774.52249	-402.25127	757.05536	-763.42868	-572.06819	496.93542	-514.52018	-578.63052	489.97675	-704.95140	-569.68834	504.93744	-515.03596	-567.85274	502.61485	-669.51425	
